<svg width="179" height="179" viewBox="0 0 179 179" fill="none" xmlns="http://www.w3.org/2000/svg">
<rect width="179" height="179" rx="20" fill="#FEC404"/>
<path d="M41.831 146V41.519H64.955L82.721 90.587C83.849 93.689 84.93 96.979 85.964 100.457C86.998 103.841 88.032 107.178 89.066 110.468H89.771C90.899 107.178 91.98 103.841 93.014 100.457C94.048 96.979 95.035 93.689 95.975 90.587L113.459 41.519H136.583V146H117.548V102.431C117.548 99.047 117.689 95.334 117.971 91.292C118.253 87.25 118.582 83.208 118.958 79.166C119.428 75.03 119.851 71.364 120.227 68.168H119.663L111.062 92.702L94.988 136.553H83.003L66.788 92.702L58.469 68.168H57.905C58.281 71.364 58.657 75.03 59.033 79.166C59.409 83.208 59.738 87.25 60.02 91.292C60.396 95.334 60.584 99.047 60.584 102.431V146H41.831Z" fill="black"/>
</svg>
